<svg width="215" height="34" viewBox="0 0 215 34" fill="none" xmlns="http://www.w3.org/2000/svg">
<path d="M51 8.49988H55.2081V15.1266H61.1945V8.49988H65.4148V25.4994H61.1945V18.7188H55.2081V25.4994H51V8.49988Z" fill="#041518"/>
<path d="M75.86 25.6421C74.1453 25.6421 72.655 25.2863 71.3909 24.5755C70.1268 23.8638 69.1542 22.8564 68.4747 21.5523C67.7952 20.2482 67.4551 18.7309 67.4551 16.9996C67.4551 15.2684 67.7987 13.7198 68.486 12.4235C69.1733 11.1194 70.1494 10.1154 71.4144 9.41247C72.6872 8.70865 74.1688 8.35718 75.86 8.35718C77.1955 8.35718 78.4013 8.626 79.4757 9.16366C80.5588 9.69348 81.4236 10.4443 82.0718 11.4161C82.7277 12.38 83.1114 13.491 83.2219 14.7472L78.9894 14.9726C78.8154 13.9843 78.4326 13.2178 77.8393 12.6723C77.2468 12.119 76.5073 11.8423 75.6225 11.8423C74.8326 11.8423 74.1444 12.0555 73.5598 12.4827C72.983 12.9098 72.5402 13.5136 72.2322 14.2966C71.932 15.0709 71.7815 15.9722 71.7815 16.9996C71.7815 18.0271 71.932 18.9319 72.2322 19.7149C72.5402 20.4892 72.983 21.0903 73.5598 21.5166C74.1444 21.9429 74.8326 22.1569 75.6225 22.1569C76.5073 22.1569 77.2424 21.8846 77.828 21.3391C78.4204 20.7858 78.8076 20.015 78.9894 19.0276L83.2219 19.2407C83.1114 20.5213 82.7242 21.6471 82.0604 22.6189C81.4045 23.5828 80.5388 24.3302 79.4644 24.8591C78.3891 25.3811 77.1885 25.6412 75.8609 25.6412L75.86 25.6421Z" fill="#041518"/>
<path d="M91.5443 25.6421C90.1767 25.6421 88.9482 25.4046 87.8573 24.9304C86.775 24.4563 85.925 23.7881 85.3082 22.9269C84.6923 22.0577 84.3843 21.0616 84.3843 19.9393L88.4976 19.8088C88.5533 20.6231 88.8534 21.2591 89.3989 21.7176C89.9435 22.1682 90.683 22.3935 91.6156 22.3935C92.3977 22.3935 93.018 22.2396 93.4765 21.9316C93.935 21.6236 94.1638 21.1851 94.1638 20.6162C94.1638 20.1733 94.0098 19.8219 93.7019 19.5609C93.4017 19.292 93.018 19.0911 92.5517 18.9562C92.0854 18.8135 91.4294 18.6596 90.5838 18.4934C90.4733 18.4777 90.3072 18.4464 90.0862 18.3986C88.8456 18.1376 87.8451 17.8296 87.0865 17.4738C86.3278 17.1101 85.751 16.6238 85.3561 16.0157C84.9689 15.3988 84.7749 14.6045 84.7749 13.6328C84.7749 12.5897 85.0716 11.6692 85.664 10.8706C86.2652 10.0641 87.0673 9.44378 88.0704 9.00965C89.0744 8.57466 90.1654 8.35803 91.3424 8.35803C92.6309 8.35803 93.781 8.58336 94.7928 9.03401C95.8116 9.47684 96.6059 10.105 97.1757 10.9193C97.7525 11.7336 98.0405 12.674 98.0405 13.7406L93.9272 13.966C93.8715 13.223 93.6192 12.6506 93.1685 12.2469C92.7257 11.8362 92.1176 11.6301 91.3424 11.6301C90.6395 11.6301 90.074 11.7762 89.6477 12.0685C89.2284 12.3608 89.0196 12.7758 89.0196 13.3135C89.0196 13.7485 89.1657 14.0956 89.458 14.3566C89.7582 14.6098 90.1297 14.8029 90.5725 14.9378C91.0223 15.0639 91.6548 15.2066 92.4691 15.364L93.0146 15.4711C94.263 15.7242 95.2704 16.0244 96.0369 16.3724C96.8121 16.7204 97.4002 17.1902 97.8038 17.7826C98.2066 18.3751 98.4085 19.1459 98.4085 20.0942C98.4085 21.2008 98.0962 22.1769 97.4715 23.0226C96.8556 23.8603 96.0212 24.5085 94.9703 24.967C93.9272 25.4176 92.7849 25.643 91.5443 25.643V25.6421Z" fill="#041518"/>
<path d="M112.551 25.6421C111.216 25.6421 110.05 25.3811 109.054 24.86C108.058 24.3301 107.291 23.5837 106.754 22.6197C106.224 21.6558 105.96 20.5335 105.96 19.2529C105.96 17.9723 106.229 16.803 106.766 15.8391C107.311 14.8751 108.078 14.1356 109.066 13.6223C110.061 13.1003 111.223 12.8402 112.551 12.8402C113.712 12.8402 114.736 13.0377 115.621 13.4327C116.515 13.8276 117.234 14.3966 117.779 15.1396C118.332 15.8826 118.684 16.7673 118.834 17.7948L114.696 18.0201C114.649 17.6565 114.523 17.3206 114.317 17.0127C114.12 16.7047 113.867 16.4637 113.558 16.2897C113.25 16.1079 112.915 16.0174 112.551 16.0174C112.038 16.0174 111.587 16.1514 111.2 16.4202C110.821 16.689 110.527 17.0684 110.322 17.5582C110.117 18.0401 110.014 18.6056 110.014 19.2538C110.014 19.9019 110.117 20.4587 110.322 20.9494C110.527 21.4313 110.821 21.8072 111.2 22.076C111.587 22.3448 112.038 22.4788 112.551 22.4788C112.93 22.4788 113.282 22.384 113.606 22.1943C113.93 22.0047 114.191 21.7515 114.388 21.4357C114.586 21.1112 114.696 20.7597 114.721 20.3804L118.858 20.6057C118.708 21.6488 118.356 22.5501 117.803 23.3088C117.258 24.0596 116.538 24.6364 115.646 25.0392C114.752 25.442 113.721 25.6438 112.551 25.6438V25.6421Z" fill="#041518"/>
<path d="M126.634 25.6421C125.275 25.6421 124.086 25.3811 123.066 24.86C122.047 24.3302 121.26 23.5837 120.707 22.6198C120.154 21.6558 119.877 20.5335 119.877 19.2529C119.877 17.9723 120.158 16.8143 120.719 15.8504C121.288 14.8864 122.082 14.1435 123.102 13.6215C124.121 13.0995 125.299 12.8394 126.634 12.8394C127.97 12.8394 129.179 13.1038 130.191 13.6337C131.21 14.1548 131.997 14.9021 132.55 15.8739C133.103 16.8378 133.38 17.9645 133.38 19.2529C133.38 20.5414 133.099 21.6793 132.538 22.6432C131.977 23.6072 131.187 24.3502 130.167 24.8722C129.148 25.3855 127.97 25.643 126.634 25.643V25.6421ZM126.634 22.4771C127.187 22.4771 127.666 22.3431 128.069 22.0743C128.479 21.8055 128.796 21.4305 129.017 20.9476C129.239 20.4578 129.349 19.8923 129.349 19.252C129.349 18.6117 129.239 18.0393 129.017 17.5564C128.796 17.0666 128.479 16.6873 128.069 16.4185C127.666 16.1497 127.187 16.0157 126.634 16.0157C126.081 16.0157 125.599 16.1497 125.188 16.4185C124.785 16.6873 124.473 17.0666 124.251 17.5564C124.038 18.0384 123.931 18.6039 123.931 19.252C123.931 19.9002 124.038 20.457 124.251 20.9476C124.473 21.4296 124.785 21.8055 125.188 22.0743C125.599 22.3431 126.081 22.4771 126.634 22.4771Z" fill="#041518"/>
<path d="M135.123 12.9812H138.81L137.672 15.8382H138.157C138.584 15.1109 139.015 14.5341 139.45 14.1069C139.884 13.6719 140.358 13.3561 140.872 13.1587C141.393 12.9612 142.002 12.8542 142.698 12.8385C144.191 12.8385 145.318 13.3875 146.077 14.4863L145.294 15.826H145.78C146.318 14.8299 147.001 14.0835 147.83 13.5858C148.66 13.0882 149.609 12.8385 150.676 12.8385C152.067 12.8385 153.157 13.317 153.948 14.2731C154.738 15.2214 155.133 16.7273 155.133 18.7901V25.5238H151.162V18.5535C151.162 17.7 151.008 17.064 150.7 16.6447C150.4 16.2262 149.925 16.0166 149.277 16.0166C148.629 16.0166 148.107 16.2419 147.712 16.6925C147.325 17.1432 147.128 17.767 147.12 18.5656V25.5247H143.148V18.5543C143.148 17.6852 142.998 17.0449 142.698 16.6343C142.405 16.2236 141.927 16.0174 141.263 16.0174C140.599 16.0174 140.07 16.2506 139.674 16.7169C139.287 17.1754 139.094 17.8079 139.094 18.6135V25.5247H135.123V12.982V12.9812Z" fill="#041518"/>
<path d="M157.149 12.9812H160.836L160.183 15.8147H160.682C160.95 14.8107 161.448 14.0643 162.175 13.5745C162.902 13.0847 163.76 12.8394 164.747 12.8394C165.878 12.8394 166.874 13.116 167.735 13.6693C168.596 14.2226 169.261 14.9847 169.727 15.9574C170.201 16.9292 170.438 18.0323 170.438 19.2651C170.438 20.4979 170.205 21.5845 169.739 22.5484C169.28 23.5124 168.621 24.271 167.759 24.8243C166.897 25.3698 165.894 25.6421 164.747 25.6421C163.815 25.6421 163.013 25.4124 162.341 24.9548C161.669 24.4885 161.113 23.722 160.67 22.6546H160.183C160.191 22.678 160.243 22.7929 160.337 22.9982C160.583 23.5115 160.78 23.9743 160.931 24.385C161.088 24.7956 161.164 25.1671 161.156 25.4994L161.12 30.36H157.149V12.9812ZM163.716 22.4884C164.254 22.4884 164.724 22.3544 165.127 22.0856C165.53 21.8089 165.838 21.4253 166.052 20.9355C166.273 20.4457 166.384 19.8802 166.384 19.2399C166.384 18.5995 166.273 18.0349 166.052 17.5443C165.838 17.0466 165.53 16.663 165.127 16.3941C164.724 16.1175 164.254 15.9791 163.716 15.9791C163.179 15.9791 162.709 16.1175 162.305 16.3941C161.91 16.663 161.606 17.0466 161.393 17.5443C161.18 18.0341 161.073 18.5995 161.073 19.2399C161.073 19.8802 161.18 20.4448 161.393 20.9355C161.606 21.4253 161.91 21.8089 162.305 22.0856C162.709 22.3544 163.179 22.4884 163.716 22.4884Z" fill="#041518"/>
<path d="M184.759 22.2161V25.5003H182.755C182.099 25.5003 181.613 25.3855 181.297 25.1567C180.989 24.9192 180.835 24.6112 180.835 24.2319C180.835 23.9944 180.89 23.7421 181.001 23.4733L181.285 22.7146H180.811C180.313 23.6942 179.709 24.4294 178.997 24.92C178.286 25.402 177.401 25.643 176.342 25.643C175.409 25.643 174.591 25.5003 173.888 25.2158C173.185 24.9235 172.639 24.5007 172.252 23.9474C171.865 23.3941 171.671 22.7346 171.671 21.9673C171.671 21.0817 171.901 20.3552 172.359 19.7862C172.817 19.2094 173.489 18.7588 174.374 18.4351C175.26 18.1115 176.378 17.874 177.729 17.7235L179.757 17.4982V17.1902C179.757 16.7082 179.57 16.3246 179.199 16.0401C178.827 15.7556 178.333 15.6129 177.717 15.6129C177.354 15.6129 177.026 15.6842 176.733 15.8261C176.449 15.96 176.224 16.1462 176.057 16.3828C175.891 16.6117 175.793 16.8613 175.761 17.1293L171.944 16.8918C172.015 16.0383 172.299 15.3075 172.798 14.6986C173.303 14.0904 173.987 13.6276 174.848 13.3118C175.717 12.996 176.737 12.8376 177.907 12.8376C179.757 12.8376 181.179 13.2291 182.174 14.0113C183.178 14.7934 183.68 15.9278 183.68 17.4138V21.4209C183.68 21.7133 183.744 21.9186 183.87 22.0369C184.004 22.1552 184.218 22.2144 184.51 22.2144H184.759V22.2161ZM177.195 22.8921C177.962 22.8921 178.574 22.6589 179.033 22.1926C179.499 21.7263 179.74 21.1017 179.757 20.3195V19.9637L177.8 20.189C177.113 20.276 176.587 20.4379 176.224 20.6754C175.86 20.9042 175.678 21.2365 175.678 21.6715C175.678 22.043 175.812 22.3397 176.081 22.5606C176.358 22.7816 176.729 22.893 177.195 22.893V22.8921Z" fill="#041518"/>
<path d="M186.241 12.9812H189.928L188.825 15.8382H189.311C189.92 14.7638 190.572 13.9964 191.268 13.5388C191.963 13.0725 192.82 12.8394 193.84 12.8394C195.381 12.8394 196.594 13.3178 197.479 14.274C198.373 15.2223 198.819 16.7282 198.819 18.7909V25.5012H194.848V18.9928C194.848 17.9888 194.67 17.2424 194.314 16.7526C193.966 16.2628 193.413 16.0174 192.654 16.0174C191.896 16.0174 191.268 16.2819 190.84 16.8117C190.422 17.3415 190.212 18.088 190.212 19.0519V25.5012H186.241V12.982V12.9812Z" fill="#041518"/>
<path d="M213.696 12.9812L209.358 27.1594C209.128 27.918 208.868 28.527 208.575 28.9855C208.282 29.4518 207.915 29.7955 207.473 30.0165C207.038 30.2453 206.493 30.3601 205.837 30.3601H201.687V27.0759H204.082C204.501 27.0759 204.841 27.0046 205.102 26.8627C205.363 26.7201 205.564 26.4791 205.706 26.1398L205.955 25.4995H203.715L199.364 12.9803H203.596L206.536 22.3336H206.939L209.44 12.9803H213.696V12.9812Z" fill="#041518"/>
<path d="M0 2.90315V31.0969C0 32.7002 1.29976 34 2.90315 34H31.0968C32.7002 34 34 32.7002 34 31.0969V2.90315C34 1.29976 32.7002 0 31.0968 0H2.90315C1.29976 0 0 1.29976 0 2.90315ZM6.77547 23.3426L16.4384 10.6582H20.4099L10.747 23.3426H6.77547ZM17.5616 23.3426H13.5901L23.253 10.6582H27.2245L17.5616 23.3426Z" fill="#041518"/>
</svg>
