<svg width="75" height="75" viewBox="0 0 75 75" fill="none" xmlns="http://www.w3.org/2000/svg">
<circle cx="37.5" cy="37.5" r="37.5" fill="#FE0000"/>
<path d="M26.913 58L37.3478 47.5652H56C57.1046 47.5652 58 46.6698 58 45.5652V20C58 18.8954 57.1046 18 56 18H20C18.8954 18 18 18.8954 18 20V45.5652C18 46.6698 18.8954 47.5652 20 47.5652H26.913V58Z" stroke="white" stroke-width="2" stroke-linecap="round" stroke-linejoin="round"/>
<circle cx="37.5" cy="37.5" r="37.5" fill="#FE0000"/>
<path d="M26.913 58L37.3478 47.5652H56C57.1046 47.5652 58 46.6698 58 45.5652V20C58 18.8954 57.1046 18 56 18H20C18.8954 18 18 18.8954 18 20V45.5652C18 46.6698 18.8954 47.5652 20 47.5652H26.913V58Z" stroke="white" stroke-width="2" stroke-linecap="round" stroke-linejoin="round"/>
</svg>
